<svg xmlns="http://www.w3.org/2000/svg" width="20" height="20" viewBox="0 0 20 20">
  <path fill="#FFF" d="M20.71,18.29 C20.8993127,18.4777666 21.0057983,18.7333625 21.0057983,19 C21.0057983,19.2666375 20.8993127,19.5222334 20.71,19.71 C20.5222334,19.8993127 20.2666375,20.0057983 20,20.0057983 C19.7333625,20.0057983 19.4777666,19.8993127 19.29,19.71 L11,11.41 L2.71,19.71 C2.5222334,19.8993127 2.26663754,20.0057983 2,20.0057983 C1.73336246,20.0057983 1.4777666,19.8993127 1.29,19.71 C1.10068735,19.5222334 0.994201676,19.2666375 0.994201676,19 C0.994201676,18.7333625 1.10068735,18.4777666 1.29,18.29 L9.59,10 L1.29,1.71 C1.03634143,1.45634143 0.937276483,1.08662601 1.03012196,0.740121963 C1.12296744,0.393617914 1.39361791,0.122967443 1.74012196,0.0301219633 C2.08662601,-0.0627235168 2.45634143,0.0363414312 2.71,0.29 L11,8.59 L19.29,0.29 C19.6821222,-0.102122172 20.3178778,-0.102122172 20.71,0.29 C21.1021222,0.682122172 21.1021222,1.31787783 20.71,1.71 L12.41,10 L20.71,18.29 Z" transform="translate(-1)"/>
</svg>
