<svg xmlns="http://www.w3.org/2000/svg" viewBox="0 0 80 80">
  <path fill="#FFF" d="M40 7.10542736e-14C18.2761497-.125213445.469292781 17.2008583-1.10031559e-13 38.92-.0206848183 39.7283256.285804573 40.510775.85 41.09 1.41439743 41.6711907 2.18986006 41.9994098 3 42.0000102L77 42.0000102C77.8136094 42.0021168 78.5931863 41.673684 79.16 41.09 79.7205429 40.5091363 80.0233493 39.7268865 80 38.92 79.5307072 17.2008583 61.7238503-.125213445 40 7.10542736e-14zM25 26C23.8954305 26 23 25.1045695 23 24 23 22.8954305 23.8954305 22 25 22 26.1045695 22 27 22.8954305 27 24 27 25.1045695 26.1045695 26 25 26zM37 15C35.8954305 15 35 14.1045695 35 13 35 11.8954305 35.8954305 11 37 11 38.1045695 11 39 11.8954305 39 13 39 14.1045695 38.1045695 15 37 15zM42 31C40.8954305 31 40 30.1045695 40 29 40 27.8954305 40.8954305 27 42 27 43.1045695 27 44 27.8954305 44 29 44 30.1045695 43.1045695 31 42 31zM55 22C53.8954305 22 53 21.1045695 53 20 53 18.8954305 53.8954305 18 55 18 56.1045695 18 57 18.8954305 57 20 57 21.1045695 56.1045695 22 55 22zM73 46L7 46C3.13400675 46 0 49.1340068 0 53 0 56.8659932 3.13400675 60 7 60L73 60C76.8659932 60 80 56.8659932 80 53 80 49.1340068 76.8659932 46 73 46L73 46zM77 64L3.05 64C2.20191681 64.0045533 1.39538472 64.3678561.83 65 .261038376 65.6241097-.0185110959 66.4591276.06 67.3.694726907 74.5154195 6.75681754 80.0382711 14 80L66 80C73.2355093 79.9992956 79.2784678 74.4852044 79.94 67.28 80.0185111 66.4391276 79.7389616 65.6041097 79.17 64.98 78.6128189 64.3679833 77.8275488 64.0133452 77 64z"/>
</svg>
